<svg width="24" height="24" viewBox="0 0 24 24" fill="none" xmlns="http://www.w3.org/2000/svg">
<path d="M9.94922 18H8.94824L8.49609 9H9.49707L9.94922 18Z" fill="black"/>
<path d="M12.4932 18H11.4932V9H12.4932V18Z" fill="black"/>
<path d="M14.999 18H13.998L14.4482 9H15.4492L14.999 18Z" fill="black"/>
<path fill-rule="evenodd" clip-rule="evenodd" d="M12 2.00781C13.7979 2.00781 15.2566 3.45635 15.2744 5.25H21V6.75H19.8242L18.3164 19.3564L18.2695 19.6348C17.9943 20.9111 16.9192 21.8658 15.6191 21.9873L15.3379 22H8.66211L8.38086 21.9873C7.08085 21.8658 6.00569 20.9111 5.73047 19.6348L5.68359 19.3564L4.17578 6.75H3V5.25H8.72559C8.7434 3.45635 10.2021 2.00781 12 2.00781ZM7.17285 19.1777C7.26306 19.9317 7.90276 20.4998 8.66211 20.5H15.3379C16.0972 20.4998 16.7369 19.9317 16.8271 19.1777L18.3096 6.7832H5.69043L7.17285 19.1777ZM12 3.50781C11.0306 3.50781 10.2443 4.28481 10.2266 5.25H13.7734C13.7557 4.28481 12.9694 3.50781 12 3.50781Z" fill="black"/>
</svg>
