<svg width="24" height="24" viewBox="0 0 24 24" fill="none" xmlns="http://www.w3.org/2000/svg">
<g clip-path="url(#clip0_6166_35725)">
<path d="M21.083 5.43314C21.7237 6.21868 21.6785 7.37742 20.9463 8.10965L9.87285 19.183L9.77825 19.2707C9.55189 19.4696 9.28317 19.6148 8.99173 19.6954L2.52695 21.4839L4.31475 15.0184C4.39538 14.7271 4.54067 14.4582 4.73943 14.2319L4.82781 14.138L15.9012 3.0646C16.6335 2.33229 17.7922 2.28695 18.5777 2.92788L18.7296 3.0646L20.9463 5.28122L21.083 5.43314ZM14.1376 6.94955L5.88847 15.1987C5.82752 15.2597 5.78372 15.3358 5.76073 15.4189L4.67797 19.3329L8.59191 18.2501C8.67507 18.2271 8.75114 18.1833 8.81219 18.1224L17.0613 9.87327L14.1376 6.94955ZM17.669 4.12526C17.4737 3.93 17.1571 3.93 16.9619 4.12526L15.1983 5.88889L18.122 8.81261L19.8856 7.04899C20.0808 6.85381 20.0806 6.53716 19.8856 6.34188L17.669 4.12526Z" fill="black"/>
</g>
<defs>
<clipPath id="clip0_6166_35725">
<rect width="24" height="24" fill="white"/>
</clipPath>
</defs>
</svg>
