<svg width="24" height="24" viewBox="0 0 24 24" fill="none" xmlns="http://www.w3.org/2000/svg">
<path d="M4.50684 6.91406C6.21448 4.7348 8.87049 3.33314 11.8545 3.33301C17.0098 3.33301 21.1885 7.51628 21.1885 12.6748C21.1883 17.8332 17.0097 22.0166 11.8545 22.0166C7.62512 22.0164 4.05525 19.2005 2.9082 15.3428L3.62695 15.1289L4.3457 14.916C5.30914 18.1556 8.30795 20.5164 11.8545 20.5166C16.1799 20.5166 19.6883 17.0061 19.6885 12.6748C19.6885 8.34333 16.18 4.83301 11.8545 4.83301C9.11946 4.83315 6.71128 6.23662 5.30957 8.36621H10.8574V9.86621H3.00684V2.01562H4.50684V6.91406Z" fill="black"/>
</svg>
