<svg width="24" height="24" viewBox="0 0 24 24" fill="none" xmlns="http://www.w3.org/2000/svg">
<path d="M11.5 13H6.99609V12H11.5V13Z" fill="black"/>
<path d="M13.9814 9H6.99609V8H13.9814V9Z" fill="black"/>
<path fill-rule="evenodd" clip-rule="evenodd" d="M10.5 2C15.1944 2 19 5.80558 19 10.5C19 12.2992 18.4382 13.966 17.4844 15.3398L21.1504 19.0059C21.7359 19.5917 21.7361 20.5413 21.1504 21.127C20.5647 21.7126 19.6151 21.7124 19.0293 21.127L15.3672 17.4648C13.9881 18.4304 12.3113 19 10.5 19C5.80558 19 2 15.1944 2 10.5C2 5.80558 5.80558 2 10.5 2ZM16.1699 16.8535L19.7363 20.4199C19.9316 20.6149 20.2482 20.6151 20.4434 20.4199C20.6385 20.2248 20.6383 19.9082 20.4434 19.7129L16.877 16.1465L16.1699 16.8535ZM10.5 3.5C6.63401 3.5 3.5 6.63401 3.5 10.5C3.5 14.366 6.63401 17.5 10.5 17.5C14.366 17.5 17.5 14.366 17.5 10.5C17.5 6.63401 14.366 3.5 10.5 3.5Z" fill="black"/>
</svg>
