<svg width="16" height="16" viewBox="0 0 16 16" fill="none" xmlns="http://www.w3.org/2000/svg">
<path fill-rule="evenodd" clip-rule="evenodd" d="M11.5635 4.00784C12.3702 4.08969 12.9998 4.77134 13 5.59964V12.4004L12.9922 12.5635C12.9158 13.3167 12.3166 13.9158 11.5635 13.9922L11.4004 14H5.59961C4.7713 13.9998 4.08966 13.3703 4.00781 12.5635L4 12.4004V5.59964C4.00021 4.71629 4.71626 4.00024 5.59961 4.00003H11.4004L11.5635 4.00784ZM5.59961 5.00003C5.26855 5.00024 5.00021 5.26858 5 5.59964V12.4004C5.00021 12.7315 5.26855 12.9998 5.59961 13H11.4004C11.7315 12.9998 11.9998 12.7315 12 12.4004V5.59964C11.9998 5.26858 11.7315 5.00024 11.4004 5.00003H5.59961Z" fill="black"/>
<path d="M11 3.00003H4.40039C3.62719 3.00003 3 3.62722 3 4.40042V11H2V4.40042C2 3.1579 2.94425 2.13579 4.1543 2.01273L4.40039 2.00003H11V3.00003Z" fill="black"/>
</svg>
