<svg width="16" height="16" viewBox="0 0 16 16" fill="none" xmlns="http://www.w3.org/2000/svg">
<path fill-rule="evenodd" clip-rule="evenodd" d="M8 1.99973C9.14397 1.99973 10.0804 2.8799 10.1738 3.99973H14V4.99973H12.8574L11.8164 12.2829L11.7822 12.4646C11.5839 13.2972 10.8738 13.9126 10.0215 13.9909L9.83691 13.9997H6.16309L5.97852 13.9909C5.12619 13.9125 4.41606 13.2972 4.21777 12.4646L4.18359 12.2829L3.14258 4.99973H2V3.99973H5.82617C5.91964 2.8799 6.85603 1.99973 8 1.99973ZM5.17285 12.1413C5.24328 12.6339 5.66552 12.9997 6.16309 12.9997H9.83691C10.3345 12.9997 10.7567 12.6339 10.8271 12.1413L11.8467 4.99973H4.15332L5.17285 12.1413ZM8 2.99973C7.40895 2.99973 6.92047 3.43349 6.83203 3.99973H9.16797C9.07953 3.43349 8.59105 2.99973 8 2.99973Z" fill="black"/>
</svg>
