<svg width="16" height="16" viewBox="0 0 16 16" fill="none" xmlns="http://www.w3.org/2000/svg">
<path d="M3.00098 4.39349C4.11817 2.93906 5.89228 1.99994 7.8877 1.99994C11.2557 1.99998 14.0039 4.67645 14.0039 7.99994C14.0039 11.3234 11.2557 13.9999 7.8877 13.9999C5.12325 13.9999 2.77981 12.1991 2.02539 9.71674L2.98242 9.42572C3.60888 11.4871 5.56375 12.9999 7.8877 12.9999C10.7232 12.9999 13.0039 10.7515 13.0039 7.99994C13.0039 5.24835 10.7232 2.99998 7.8877 2.99994C6.21233 2.99994 4.72949 3.78763 3.79688 4.99994H7.17188V5.99994H2.00098V0.999939H3.00098V4.39349Z" fill="black"/>
</svg>
