<svg width="16" height="16" viewBox="0 0 16 16" fill="none" xmlns="http://www.w3.org/2000/svg">
<path fill-rule="evenodd" clip-rule="evenodd" d="M9.56348 7.00827C10.3702 7.09014 10.9998 7.77178 11 8.60007V12.4008L10.9922 12.5639C10.9156 13.3169 10.3165 13.9162 9.56348 13.9926L9.40039 14.0005H3.59961C2.77146 14.0003 2.08987 13.3705 2.00781 12.5639L2 12.4008V8.60007C2.00021 7.71672 2.71626 7.00067 3.59961 7.00046H8.01953V4.50046C8.01953 2.85465 9.35419 1.51999 11 1.51999C12.6458 1.51999 13.9805 2.85465 13.9805 4.50046V7.00046H13.0195V4.50046C13.0195 3.38484 12.1156 2.48093 11 2.48093C9.88438 2.48093 8.98047 3.38484 8.98047 4.50046V7.00046H9.40039L9.56348 7.00827ZM3.59961 7.96042C3.24646 7.96063 2.96017 8.24691 2.95996 8.60007V12.4008C2.96042 12.7538 3.24661 13.0403 3.59961 13.0405H9.40039C9.75339 13.0403 10.0396 12.7538 10.04 12.4008V8.60007C10.0398 8.24691 9.75354 7.96063 9.40039 7.96042H3.59961Z" fill="black"/>
</svg>
