<svg width="24" height="24" viewBox="0 0 24 24" fill="none" xmlns="http://www.w3.org/2000/svg">
<path fill-rule="evenodd" clip-rule="evenodd" d="M8 11C9.10457 11 10 11.8954 10 13C10 14.1046 9.10457 15 8 15C6.89543 15 6 14.1046 6 13C6 11.8954 6.89543 11 8 11ZM8 12C7.44772 12 7 12.4477 7 13C7 13.5523 7.44772 14 8 14C8.55228 14 9 13.5523 9 13C9 12.4477 8.55228 12 8 12Z" fill="black"/>
<path fill-rule="evenodd" clip-rule="evenodd" d="M8 4H16V2H17V4H18L18.1543 4.00391C19.7394 4.08421 21 5.39489 21 7V17C21 18.6051 19.7394 19.9158 18.1543 19.9961L18 20H6C4.34315 20 3 18.6569 3 17V7C3 5.34315 4.34315 4 6 4H7V2H8V4ZM4 17C4 18.1046 4.89543 19 6 19H18C19.1046 19 20 18.1046 20 17V9H4V17ZM6 5C4.89543 5 4 5.89543 4 7V8H20V7C20 5.89543 19.1046 5 18 5H6Z" fill="black"/>
</svg>
