<svg width="24" height="24" viewBox="0 0 24 24" fill="none" xmlns="http://www.w3.org/2000/svg">
<path fill-rule="evenodd" clip-rule="evenodd" d="M17.1543 5.00381C18.7394 5.08412 20 6.3948 20 7.99991V18.9999C20 20.605 18.7394 21.9157 17.1543 21.996L17 21.9999H9C7.39489 21.9999 6.08421 20.7394 6.00391 19.1542L6 18.9999V7.99991C6 6.34305 7.34315 4.99991 9 4.99991H17L17.1543 5.00381ZM9 5.99991C7.89543 5.99991 7 6.89534 7 7.99991V18.9999C7 20.1045 7.89543 20.9999 9 20.9999H17C18.1046 20.9999 19 20.1045 19 18.9999V7.99991C19 6.89534 18.1046 5.99991 17 5.99991H9Z" fill="black"/>
<path d="M16 2.99991H7C5.34315 2.99991 4 4.34305 4 5.99991V17.9999H3V5.99991C3 3.79077 4.79086 1.99991 7 1.99991H16V2.99991Z" fill="black"/>
</svg>
