<svg width="24" height="24" viewBox="0 0 24 24" fill="none" xmlns="http://www.w3.org/2000/svg">
<path d="M9.94922 18H8.94824L8.49609 9H9.49707L9.94922 18Z" fill="black"/>
<path d="M12.4932 18H11.4932V9H12.4932V18Z" fill="black"/>
<path d="M14.999 18H13.998L14.4482 9H15.4492L14.999 18Z" fill="black"/>
<path fill-rule="evenodd" clip-rule="evenodd" d="M12 2.5C13.6643 2.5 15.0254 3.82255 15.0254 5.5H21V6.5H19.8789L18.3203 19.3613L18.2734 19.6387C17.9968 20.9133 16.9217 21.866 15.623 21.9873L15.3418 22H8.66797L8.38574 21.9873C7.08373 21.8655 6.00747 20.9078 5.73438 19.6289L5.68848 19.3506L4.17676 6.5H3V5.5H8.97461C8.97461 3.82255 10.3357 2.5 12 2.5ZM6.68164 19.2334C6.80016 20.2406 7.65381 21 8.66797 21H15.3418C16.3532 20.9999 17.2054 20.2443 17.3271 19.2402L18.8721 6.5H5.18359L6.68164 19.2334ZM12 3.5C10.8748 3.5 9.97461 4.38798 9.97461 5.5H14.0254C14.0254 4.38798 13.1252 3.5 12 3.5Z" fill="black"/>
</svg>
