<svg width="24" height="24" viewBox="0 0 24 24" fill="none" xmlns="http://www.w3.org/2000/svg">
<g clip-path="url(#clip0_6166_35692)">
<path d="M21.083 5.43314C21.7237 6.21868 21.6785 7.37742 20.9463 8.10965L9.87285 19.183L9.77825 19.2707C9.55189 19.4696 9.28317 19.6148 8.99173 19.6954L2.52695 21.4839L4.31475 15.0184C4.39538 14.7271 4.54067 14.4582 4.73943 14.2319L4.82781 14.138L15.9012 3.0646C16.6335 2.33229 17.7922 2.28695 18.5777 2.92788L18.7296 3.0646L20.9463 5.28122L21.083 5.43314ZM13.9608 6.41922L5.53492 14.8451C5.41297 14.9672 5.32479 15.1187 5.27873 15.285L3.96188 20.049L8.72588 18.7321C8.89208 18.6861 9.04374 18.5978 9.16575 18.4759L17.5916 10.05L13.9608 6.41922ZM18.0225 3.77171C17.632 3.38119 16.9988 3.38119 16.6083 3.77171L14.6679 5.71211L18.2988 9.34294L20.2392 7.40254C20.6296 7.0121 20.6294 6.37887 20.2392 5.98832L18.0225 3.77171Z" fill="black"/>
</g>
<defs>
<clipPath id="clip0_6166_35692">
<rect width="24" height="24" fill="white"/>
</clipPath>
</defs>
</svg>
