<svg width="24" height="24" viewBox="0 0 24 24" fill="none" xmlns="http://www.w3.org/2000/svg">
<path d="M4.65234 9.94238C4.17458 10.5021 3.78744 11.0326 3.49805 11.4639C3.36087 11.6683 3.24689 11.85 3.15527 12C3.24689 12.15 3.36087 12.3317 3.49805 12.5361C3.91392 13.1559 4.53024 13.9815 5.33008 14.8027C6.9454 16.461 9.20318 17.9999 12 18C13.6543 18 15.1184 17.4588 16.374 16.6758L17.3467 17.2354C15.8788 18.2467 14.0862 19 12 19C6.43214 18.9998 2.95209 13.6408 2.16895 12.3008L2 12C2 12 2.61111 10.8237 3.77051 9.43555L4.65234 9.94238Z" fill="black"/>
<path fill-rule="evenodd" clip-rule="evenodd" d="M12 5C18.3489 5 21.9832 11.9678 22 12L21.8311 12.3008C21.5173 12.8376 20.7689 14.0169 19.6289 15.2402L21.2441 16.1377L21.6807 16.3809L21.1953 17.2549L20.7578 17.0127L2.75781 7.0127L2.32129 6.76953L2.80664 5.89551L3.24414 6.1377L5.69336 7.49805C7.31271 6.1395 9.43409 5.00008 12 5ZM12 6C9.88905 6.00008 8.08589 6.87734 6.63379 8.02051L9.46191 9.5918C10.0996 8.91983 11.0005 8.5 12 8.5C13.933 8.50004 15.5 10.067 15.5 12C15.5 12.3053 15.4584 12.6007 15.3848 12.8828L18.7285 14.7402C19.4995 13.9394 20.0964 13.1405 20.502 12.5361C20.639 12.3319 20.7522 12.1499 20.8438 12C20.7522 11.8501 20.639 11.6681 20.502 11.4639C20.0861 10.8441 19.4698 10.0184 18.6699 9.19727C17.0546 7.53896 14.7969 6 12 6ZM12 9.5C11.3798 9.5 10.8133 9.72637 10.377 10.1006L14.4707 12.374C14.4893 12.252 14.5 12.1273 14.5 12C14.5 10.6193 13.3807 9.50004 12 9.5Z" fill="black"/>
<path d="M9.54883 12.4951C9.77856 13.6387 10.7888 14.5 12 14.5C12.3064 14.5 12.5988 14.4417 12.8701 14.3408L13.9209 14.9248C13.3693 15.2878 12.7096 15.5 12 15.5C10.067 15.5 8.5 13.933 8.5 12C8.5 11.9713 8.50126 11.9426 8.50195 11.9141L9.54883 12.4951Z" fill="black"/>
</svg>
