<svg width="24" height="24" viewBox="0 0 24 24" fill="none" xmlns="http://www.w3.org/2000/svg">
<path fill-rule="evenodd" clip-rule="evenodd" d="M12 8.5C13.933 8.5 15.5 10.067 15.5 12C15.5 13.933 13.933 15.5 12 15.5C10.067 15.5 8.5 13.933 8.5 12C8.5 10.067 10.067 8.5 12 8.5ZM12 9.5C10.6193 9.5 9.5 10.6193 9.5 12C9.5 13.3807 10.6193 14.5 12 14.5C13.3807 14.5 14.5 13.3807 14.5 12C14.5 10.6193 13.3807 9.5 12 9.5Z" fill="black"/>
<path fill-rule="evenodd" clip-rule="evenodd" d="M12 5C18.3636 5 22 12 22 12L21.8311 12.3008C21.0479 13.6408 17.568 19 12 19C6.43198 19 2.9521 13.6408 2.16895 12.3008L2 12C2 12 5.63636 5 12 5ZM12 6C9.20305 6 6.94545 7.53891 5.33008 9.19727C4.53017 10.0185 3.91395 10.844 3.49805 11.4639C3.36083 11.6684 3.24691 11.85 3.15527 12C3.24691 12.15 3.36083 12.3316 3.49805 12.5361C3.91395 13.156 4.53017 13.9815 5.33008 14.8027C6.94545 16.4611 9.20305 18 12 18C14.7969 18 17.0545 16.4611 18.6699 14.8027C19.4698 13.9815 20.0861 13.156 20.502 12.5361C20.639 12.3318 20.7522 12.1499 20.8438 12C20.7522 11.8501 20.639 11.6682 20.502 11.4639C20.0861 10.844 19.4698 10.0185 18.6699 9.19727C17.0545 7.53891 14.7969 6 12 6Z" fill="black"/>
</svg>
