<svg width="16" height="16" viewBox="0 0 16 16" fill="none" xmlns="http://www.w3.org/2000/svg">
<path d="M5 8C5.55228 8 6 8.44772 6 9C6 9.55228 5.55228 10 5 10C4.44772 10 4 9.55228 4 9C4 8.44772 4.44772 8 5 8Z" fill="black"/>
<path fill-rule="evenodd" clip-rule="evenodd" d="M5 3H11V2H12V3L12.2041 3.01074C13.2128 3.113 14 3.96435 14 5V12L13.9893 12.2041C13.8938 13.1457 13.1457 13.8938 12.2041 13.9893L12 14H4C2.96435 14 2.113 13.2128 2.01074 12.2041L2 12V5C2 3.89543 2.89543 3 4 3V2H5V3ZM3 7V12C3 12.5523 3.44772 13 4 13H12C12.5523 13 13 12.5523 13 12V7H3ZM4 4C3.44772 4 3 4.44772 3 5V6H13V5C13 4.44772 12.5523 4 12 4H4Z" fill="black"/>
</svg>
