<svg width="16" height="16" viewBox="0 0 16 16" fill="none" xmlns="http://www.w3.org/2000/svg">
<path d="M13.2903 4.30388C13.6934 4.79797 13.6651 5.52671 13.2047 5.9874L6.56313 12.629L6.43814 12.7388C6.30588 12.8399 6.15421 12.9145 5.99205 12.957L2.00008 14.0017L3.05314 10.0167C3.09577 9.85541 3.1699 9.70422 3.27066 9.57266L3.37977 9.44836L10.0227 2.80542C10.514 2.31441 11.3102 2.31442 11.8015 2.80542L13.2047 4.20859L13.2903 4.30388ZM9.16161 5.08073L4.08687 10.1555C4.05476 10.1877 4.03151 10.2282 4.01989 10.2722L3.40531 12.5993L5.73932 11.9888C5.78345 11.9772 5.82373 11.9541 5.85602 11.9219L10.9294 6.8485L9.16161 5.08073ZM11.0944 3.51253C10.9937 3.41205 10.8306 3.41204 10.7298 3.51253L9.86871 4.37363L11.6365 6.14139L12.4976 5.2803C12.598 5.17957 12.598 5.01646 12.4976 4.9157L11.0944 3.51253Z" fill="black"/>
</svg>
