<svg width="16" height="16" viewBox="0 0 16 16" fill="none" xmlns="http://www.w3.org/2000/svg">
<path d="M2.98438 6.83496C2.70383 7.17816 2.47146 7.50007 2.29395 7.76855C2.23951 7.85088 2.19042 7.92779 2.14648 7.99805C2.19053 8.06849 2.23933 8.14591 2.29395 8.22852C2.57988 8.66098 3.00374 9.23565 3.55176 9.80664C4.66435 10.9658 6.18012 11.999 8.0293 11.999C9.01208 11.999 9.89963 11.7053 10.6836 11.2578L11.668 11.8223C10.6583 12.5015 9.43956 12.999 8.0293 12.999L7.61523 12.9844C3.93802 12.7291 1.6414 9.13761 1.10938 8.21387L0.990234 7.99902C0.990234 7.99902 1.37547 7.24953 2.10645 6.33008L2.98438 6.83496Z" fill="black"/>
<path fill-rule="evenodd" clip-rule="evenodd" d="M8.44336 3.0127C12.666 3.30589 15.0684 7.99902 15.0684 7.99902L14.9492 8.21387C14.7171 8.61687 14.1476 9.52632 13.2754 10.4463L15.0498 11.4658L14.5518 12.333L1.00586 4.55176L1.50391 3.68457L3.51953 4.8418C4.66799 3.84501 6.18604 2.99805 8.0293 2.99805L8.44336 3.0127ZM8.0293 3.99805C6.63444 3.99805 5.42973 4.58652 4.44434 5.37305L6.22559 6.39648C6.67501 5.91186 7.31604 5.60742 8.0293 5.60742C9.38961 5.6078 10.4922 6.71089 10.4922 8.07129C10.4922 8.31994 10.4525 8.55911 10.3838 8.78516L12.3809 9.93262C12.4229 9.89036 12.4659 9.84931 12.5068 9.80664C13.0547 9.23578 13.4777 8.66095 13.7637 8.22852C13.8181 8.1462 13.8662 8.06829 13.9102 7.99805C13.8663 7.92801 13.8179 7.85057 13.7637 7.76855C13.4777 7.33613 13.0547 6.76126 12.5068 6.19043C11.3943 5.03129 9.87844 3.99807 8.0293 3.99805ZM8.0293 6.60742C7.6939 6.60742 7.38403 6.72099 7.13672 6.91211L9.47852 8.25781C9.48632 8.19671 9.49218 8.13459 9.49219 8.07129C9.49219 7.31333 8.91621 6.69043 8.17871 6.61523L8.0293 6.60742Z" fill="black"/>
<path d="M9.04199 10.3145C8.7329 10.4542 8.39057 10.5351 8.0293 10.5352C6.75414 10.5352 5.70488 9.56591 5.57812 8.32422L9.04199 10.3145Z" fill="black"/>
</svg>
