<svg width="16" height="16" viewBox="0 0 16 16" fill="none" xmlns="http://www.w3.org/2000/svg">
<path fill-rule="evenodd" clip-rule="evenodd" d="M7 2C9.76142 2 12 4.23858 12 7C12 8.20437 11.5736 9.30876 10.8643 10.1719L13.8457 13.1533C14.038 13.3456 14.038 13.6573 13.8457 13.8496C13.6536 14.0412 13.3425 14.0412 13.1504 13.8496L10.168 10.8672C9.30541 11.5746 8.20261 12 7 12C4.23858 12 2 9.76142 2 7C2 4.23858 4.23858 2 7 2ZM7 3C4.79086 3 3 4.79086 3 7C3 9.20914 4.79086 11 7 11C9.20914 11 11 9.20914 11 7C11 4.79086 9.20914 3 7 3Z" fill="black"/>
</svg>
