<svg width="16" height="16" viewBox="0 0 16 16" fill="none" xmlns="http://www.w3.org/2000/svg">
<path fill-rule="evenodd" clip-rule="evenodd" d="M9.75195 3.4505C10.02 3.55882 10.2714 3.67794 10.5059 3.80792C10.7403 3.93789 10.9809 4.10029 11.2266 4.29523L13.1689 3.64484L14.5098 5.92023L12.9678 7.22003C13.0124 7.47992 13.0352 7.751 13.0352 8.03253C13.0351 8.31388 13.0124 8.58433 12.9678 8.84406L14.5098 10.1439L13.1689 12.3538L11.2266 11.7689C10.9809 11.9422 10.7404 12.0892 10.5059 12.2083C10.2714 12.3274 10.0199 12.4408 9.75195 12.5491L9.34961 14.4993H6.66992L6.26758 12.5491C5.99968 12.4408 5.7481 12.3274 5.51367 12.2083C5.27923 12.0892 5.03955 11.9421 4.79395 11.7689L2.85059 12.3538L1.51074 10.1439L3.05176 8.84406C3.00713 8.54092 2.98438 8.25918 2.98438 7.99933C2.98439 7.73943 3.0071 7.4578 3.05176 7.1546L1.51074 5.8548L2.85059 3.64484L4.79395 4.2298C5.03944 4.05662 5.27933 3.91042 5.51367 3.79132C5.74805 3.67223 5.99974 3.55877 6.26758 3.4505L6.66992 1.50031H9.34961L9.75195 3.4505ZM8.00293 6.23175C7.02524 6.23193 6.23242 7.02453 6.23242 8.00226C6.2325 8.97992 7.02529 9.77258 8.00293 9.77277C8.98072 9.77277 9.77335 8.98003 9.77344 8.00226C9.77344 7.02441 8.98077 6.23175 8.00293 6.23175Z" stroke="black"/>
</svg>
