<svg width="16" height="16" viewBox="0 0 16 16" fill="none" xmlns="http://www.w3.org/2000/svg">
<path fill-rule="evenodd" clip-rule="evenodd" d="M8.0293 5.57422C9.41001 5.57422 10.5293 6.69351 10.5293 8.07422C10.5293 9.45493 9.41001 10.5742 8.0293 10.5742C6.64858 10.5742 5.5293 9.45493 5.5293 8.07422C5.5293 6.69351 6.64858 5.57422 8.0293 5.57422ZM8.0293 6.57422C7.20087 6.57422 6.5293 7.24579 6.5293 8.07422C6.5293 8.90265 7.20087 9.57422 8.0293 9.57422C8.85772 9.57422 9.5293 8.90265 9.5293 8.07422C9.5293 7.24579 8.85772 6.57422 8.0293 6.57422Z" fill="black"/>
<path fill-rule="evenodd" clip-rule="evenodd" d="M8.44336 3.01465C12.666 3.30785 15.0684 8.00098 15.0684 8.00098L14.9492 8.21582C14.3976 9.17367 11.9481 13.0009 8.0293 13.001L7.61523 12.9863C3.93802 12.7311 1.6414 9.13956 1.10938 8.21582L0.990234 8.00098C0.990234 8.00098 3.54993 3 8.0293 3L8.44336 3.01465ZM8.0293 4C6.18016 4 4.66434 5.03326 3.55176 6.19238C3.00374 6.76338 2.57988 7.33804 2.29395 7.77051C2.23951 7.85284 2.19042 7.92975 2.14648 8C2.19053 8.07044 2.23933 8.14786 2.29395 8.23047C2.57988 8.66294 3.00374 9.2376 3.55176 9.80859C4.66435 10.9677 6.18012 12.001 8.0293 12.001C9.87847 12.001 11.3943 10.9678 12.5068 9.80859C13.0547 9.23773 13.4777 8.6629 13.7637 8.23047C13.8181 8.14815 13.8662 8.07025 13.9102 8C13.8663 7.92997 13.8179 7.85252 13.7637 7.77051C13.4777 7.33808 13.0547 6.76321 12.5068 6.19238C11.3943 5.03324 9.87844 4.00002 8.0293 4Z" fill="black"/>
</svg>
