<svg width="20" height="20" viewBox="0 0 20 20" fill="none" xmlns="http://www.w3.org/2000/svg">
<path d="M7.5 11C7.5 11.5523 7.05228 12 6.5 12C5.94772 12 5.5 11.5523 5.5 11C5.5 10.4477 5.94772 10 6.5 10C7.05228 10 7.5 10.4477 7.5 11Z" fill="black"/>
<path fill-rule="evenodd" clip-rule="evenodd" d="M6 3H7V5H13V3H14V5H15C16.1046 5 17 5.89543 17 7V15L16.9893 15.2041C16.8938 16.1457 16.1457 16.8938 15.2041 16.9893L15 17H5L4.7959 16.9893C3.85435 16.8938 3.1062 16.1457 3.01074 15.2041L3 15V7C3 5.89543 3.89543 5 5 5H6V3ZM5 16H15C15.5523 16 16 15.5523 16 15V9H4V15C4 15.5523 4.44772 16 5 16ZM4 8V7C4 6.44772 4.44772 6 5 6H15C15.5523 6 16 6.44772 16 7V8H4Z" fill="black"/>
</svg>
