<svg width="20" height="20" viewBox="0 0 20 20" fill="none" xmlns="http://www.w3.org/2000/svg">
<path d="M17.2094 4.7687C17.7434 5.42332 17.705 6.38889 17.0948 6.99912L8.41545 15.6784C8.20951 15.8844 7.95356 16.0333 7.67243 16.1093L2.49895 17.507L3.89728 12.3342C3.9733 12.053 4.12152 11.7965 4.32748 11.5905L13.0068 2.91116C13.6169 2.30101 14.5826 2.26274 15.2372 2.79653L15.3643 2.91116L17.0955 4.64233L17.2094 4.7687ZM11.5739 5.75823L5.03459 12.2976C4.9522 12.38 4.89306 12.4827 4.86265 12.5952L3.91938 16.0866L7.41141 15.144C7.52382 15.1135 7.62599 15.0537 7.70834 14.9713L14.2477 8.43198L11.5739 5.75823ZM14.6572 3.61827C14.3968 3.35792 13.9743 3.35792 13.7139 3.61827L12.2811 5.05113L14.9548 7.72488L16.3877 6.29202C16.6479 6.03174 16.6485 5.6098 16.3884 5.34944L14.6572 3.61827Z" fill="black"/>
</svg>
