<svg width="20" height="20" viewBox="0 0 20 20" fill="none" xmlns="http://www.w3.org/2000/svg">
<path d="M4 6.35742C5.3271 4.42361 7.55318 3.15436 10.0762 3.1543C14.1449 3.15443 17.4433 6.45585 17.4434 10.5273C17.4431 14.5987 14.1448 17.9003 10.0762 17.9004C6.7383 17.9003 3.92018 15.6786 3.01465 12.6338L3.97363 12.3486C4.75669 14.9815 7.19343 16.9003 10.0762 16.9004C13.5916 16.9003 16.4431 14.0473 16.4434 10.5273C16.4433 7.00722 13.5917 4.15443 10.0762 4.1543C7.86446 4.15436 5.91707 5.28431 4.77539 7H9V8H3V2H4V6.35742Z" fill="black"/>
</svg>
