<svg width="24" height="24" viewBox="0 0 24 24" fill="none" xmlns="http://www.w3.org/2000/svg">
<path fill-rule="evenodd" clip-rule="evenodd" d="M17.1543 5.00378C18.7394 5.08409 20 6.39477 20 7.99988V18.9999C20 20.605 18.7394 21.9157 17.1543 21.996L17 21.9999H9C7.39489 21.9999 6.08421 20.7393 6.00391 19.1542L6 18.9999V7.99988C6 6.34302 7.34315 4.99988 9 4.99988H17L17.1543 5.00378ZM9 6.49988C8.17157 6.49988 7.5 7.17145 7.5 7.99988V18.9999C7.5 19.8283 8.17157 20.4999 9 20.4999H17C17.8284 20.4999 18.5 19.8283 18.5 18.9999V7.99988C18.5 7.17145 17.8284 6.49988 17 6.49988H9Z" fill="black"/>
<path d="M16 2.99988H7C5.34315 2.99988 4 4.34302 4 5.99988V17.9999H3V5.99988C3 3.79074 4.79086 1.99988 7 1.99988H16V2.99988Z" fill="black"/>
</svg>
