<svg width="24" height="24" viewBox="0 0 24 24" fill="none" xmlns="http://www.w3.org/2000/svg">
<path d="M5.09375 10.1953C4.60241 10.7634 4.20639 11.3051 3.91309 11.7422C3.85217 11.833 3.7967 11.9196 3.74512 12C3.7967 12.0804 3.85217 12.167 3.91309 12.2578C4.31674 12.8594 4.91482 13.6588 5.68848 14.4531C7.25924 16.0658 9.39538 17.4999 12 17.5C13.4428 17.5 14.7411 17.0583 15.8799 16.3916L17.3467 17.2354C15.8788 18.2467 14.0862 19 12 19C6.43214 18.9998 2.95209 13.6408 2.16895 12.3008L2 12C2 12 2.61111 10.8237 3.77051 9.43555L5.09375 10.1953Z" fill="black"/>
<path fill-rule="evenodd" clip-rule="evenodd" d="M12 5C18.3489 5 21.9832 11.9678 22 12L21.8311 12.3008C21.5378 12.8025 20.8651 13.866 19.8477 15.002L22.0195 16.209L21.291 17.5195L1.98047 6.79102L2.70898 5.48047L5.95508 7.28418C7.5389 6.02212 9.57005 5.00008 12 5ZM12 6.5C10.2384 6.50007 8.69147 7.15634 7.38867 8.08008L9.69922 9.36328C10.3144 8.82595 11.119 8.5 12 8.5C13.933 8.50004 15.5 10.067 15.5 12C15.5 12.1907 15.4816 12.3772 15.4521 12.5596L18.5 14.2529C19.1822 13.5254 19.7169 12.8093 20.0869 12.2578C20.1477 12.1672 20.2024 12.0802 20.2539 12C20.2024 11.9198 20.1477 11.8328 20.0869 11.7422C19.6832 11.1406 19.0852 10.3412 18.3115 9.54688C16.7407 7.93423 14.6047 6.5 12 6.5ZM12 10C11.7035 10 11.4217 10.0637 11.1689 10.1797L13.9805 11.7422C13.8538 10.7596 13.017 10 12 10Z" fill="black"/>
<path d="M10.1934 12.8535C10.5138 13.5306 11.2012 14 12 14C12.0777 14 12.1541 13.993 12.2295 13.9844L13.9209 14.9248C13.3693 15.2878 12.7096 15.5 12 15.5C10.067 15.5 8.5 13.933 8.5 12C8.5 11.9713 8.50126 11.9426 8.50195 11.9141L10.1934 12.8535Z" fill="black"/>
</svg>
