<svg width="24" height="24" viewBox="0 0 24 24" fill="none" xmlns="http://www.w3.org/2000/svg">
<path fill-rule="evenodd" clip-rule="evenodd" d="M14.4785 5.5332C14.8597 5.68727 15.2172 5.85712 15.5508 6.04199C15.8843 6.22689 16.2258 6.45805 16.5752 6.73535L19.3389 5.81055L21.2461 9.04688L19.0537 10.8965C19.1172 11.2662 19.1484 11.6513 19.1484 12.0518C19.1484 12.4524 19.1173 12.8382 19.0537 13.208L21.2461 15.0566L19.3389 18.2002L16.5752 17.3682C16.2258 17.6146 15.8843 17.8227 15.5508 17.9922C15.2173 18.1616 14.8596 18.3235 14.4785 18.4775L13.9062 21.252H10.0938L9.52148 18.4775C9.14025 18.3235 8.7828 18.1617 8.44922 17.9922C8.11566 17.8227 7.77424 17.6147 7.4248 17.3682L4.66016 18.2002L2.75391 15.0566L4.94629 13.208C4.88276 12.7766 4.8506 12.3756 4.85059 12.0059C4.85059 11.636 4.88275 11.2352 4.94629 10.8037L2.75391 8.9541L4.66016 5.81055L7.4248 6.64258C7.77416 6.39615 8.11574 6.188 8.44922 6.01855C8.78278 5.84908 9.14028 5.68727 9.52148 5.5332L10.0938 2.75977H13.9062L14.4785 5.5332ZM11.9893 9.49121C10.5983 9.49125 9.47093 10.6189 9.4707 12.0098C9.4707 13.4008 10.5982 14.5293 11.9893 14.5293C13.3803 14.5293 14.5078 13.4009 14.5078 12.0098C14.5076 10.6189 13.3802 9.49121 11.9893 9.49121Z" stroke="black" stroke-width="1.5"/>
</svg>
