<svg width="24" height="24" viewBox="0 0 24 24" fill="none" xmlns="http://www.w3.org/2000/svg">
<path fill-rule="evenodd" clip-rule="evenodd" d="M12 8.5C13.933 8.5 15.5 10.067 15.5 12C15.5 13.933 13.933 15.5 12 15.5C10.067 15.5 8.5 13.933 8.5 12C8.5 10.067 10.067 8.5 12 8.5ZM12 10C10.8954 10 10 10.8954 10 12C10 13.1046 10.8954 14 12 14C13.1046 14 14 13.1046 14 12C14 10.8954 13.1046 10 12 10Z" fill="black"/>
<path fill-rule="evenodd" clip-rule="evenodd" d="M12 5C18.3636 5 22 12 22 12L21.8311 12.3008C21.0479 13.6408 17.568 19 12 19C6.43198 19 2.9521 13.6408 2.16895 12.3008L2 12C2 12 5.63636 5 12 5ZM12 6.5C9.39525 6.5 7.25929 7.93418 5.68848 9.54688C4.91475 10.3412 4.31676 11.1406 3.91309 11.7422C3.85214 11.833 3.79673 11.9196 3.74512 12C3.79673 12.0804 3.85214 12.167 3.91309 12.2578C4.31676 12.8594 4.91475 13.6588 5.68848 14.4531C7.25929 16.0658 9.39525 17.5 12 17.5C14.6047 17.5 16.7407 16.0658 18.3115 14.4531C19.0852 13.6588 19.6832 12.8594 20.0869 12.2578C20.1478 12.1671 20.2024 12.0803 20.2539 12C20.2024 11.9197 20.1478 11.8329 20.0869 11.7422C19.6832 11.1406 19.0852 10.3412 18.3115 9.54688C16.7407 7.93418 14.6047 6.5 12 6.5Z" fill="black"/>
</svg>
