<svg width="24" height="24" viewBox="0 0 24 24" fill="none" xmlns="http://www.w3.org/2000/svg">
<path fill-rule="evenodd" clip-rule="evenodd" d="M15.5996 10.9997C16.925 10.9997 17.9998 12.0747 18 13.4001V19.5993C18 20.9248 16.9251 21.9997 15.5996 21.9997H6.40039L6.1543 21.987C4.94426 21.8639 4 20.8418 4 19.5993V13.4001C4.00016 12.1577 4.94435 11.1354 6.1543 11.0124L6.40039 10.9997H12.25V5.99969C12.2501 3.37647 14.3767 1.24969 17 1.24969C19.6233 1.24969 21.7499 3.37647 21.75 5.99969V10.9997H20.25V5.99969C20.2499 4.2049 18.7948 2.74969 17 2.74969C15.2052 2.74969 13.7501 4.2049 13.75 5.99969V10.9997H15.5996ZM6.40039 12.4997C5.90344 12.4997 5.50017 12.9032 5.5 13.4001V19.5993C5.5 20.0964 5.90333 20.4997 6.40039 20.4997H15.5996C16.0967 20.4997 16.5 20.0964 16.5 19.5993V13.4001C16.4998 12.9032 16.0966 12.4997 15.5996 12.4997H6.40039Z" fill="black"/>
</svg>
