<svg width="20" height="20" viewBox="0 0 20 20" fill="none" xmlns="http://www.w3.org/2000/svg">
<path d="M8.97266 14.9999H7.97168L7.52734 6.99988H8.52832L8.97266 14.9999Z" fill="black"/>
<path d="M12.0283 14.9999H11.0273L11.4717 6.99988H12.4727L12.0283 14.9999Z" fill="black"/>
<path fill-rule="evenodd" clip-rule="evenodd" d="M10 1.79773C11.3013 1.79773 12.3765 2.75293 12.5703 3.99988H18V4.99988H16.8574L15.3066 15.8534L15.2637 16.0809C15.0159 17.1218 14.1279 17.8911 13.0625 17.9891L12.832 17.9999H7.16797C5.92396 17.9997 4.86929 17.0849 4.69336 15.8534L3.14258 4.99988H2V3.99988H7.42969C7.62349 2.75293 8.69872 1.79773 10 1.79773ZM5.68359 15.7118C5.78915 16.4507 6.42161 16.9997 7.16797 16.9999H12.832C13.5783 16.9997 14.2109 16.4506 14.3164 15.7118L15.8467 4.99988H4.15332L5.68359 15.7118ZM10 2.79773C9.25311 2.79773 8.62707 3.30889 8.44824 3.99988H11.5518C11.3729 3.30889 10.7469 2.79773 10 2.79773Z" fill="black"/>
</svg>
