<svg width="20" height="20" viewBox="0 0 20 20" fill="none" xmlns="http://www.w3.org/2000/svg">
<path d="M4.27246 8.52539C3.89469 8.95948 3.58796 9.37049 3.35938 9.70508C3.28601 9.81247 3.22079 9.91137 3.16406 10C3.22079 10.0886 3.28601 10.1875 3.35938 10.2949C3.68668 10.774 4.1719 11.4118 4.80078 12.0459C6.07299 13.3287 7.83242 14.5 10 14.5C11.1881 14.5 12.2528 14.1465 13.1826 13.6172L14.1719 14.1826C13.0173 14.9417 11.6196 15.5 10 15.5C5.54534 15.5 2.7611 11.2889 2.13477 10.2363L2 10C2 10 2.47822 9.09507 3.38672 8.01953L4.27246 8.52539Z" fill="black"/>
<path fill-rule="evenodd" clip-rule="evenodd" d="M10 4.5C15.0909 4.5 18 10 18 10L17.8652 10.2363C17.6105 10.6645 16.9978 11.6145 16.0615 12.5918L17.6826 13.5186L17.1865 14.3877L2.31738 5.8916L2.81348 5.02246L5.11133 6.33496C6.38597 5.32471 8.0293 4.5 10 4.5ZM10 5.5C8.47269 5.5 7.1482 6.08185 6.05371 6.87402L8.03027 8.00293C8.52959 7.52736 9.20401 7.23446 9.94824 7.23438C11.488 7.23446 12.7363 8.48269 12.7363 10.0225C12.7363 10.2388 12.7119 10.4493 12.665 10.6514L15.1641 12.0791C15.1755 12.0677 15.1879 12.0573 15.1992 12.0459C15.8281 11.4118 16.3133 10.774 16.6406 10.2949C16.7139 10.1877 16.7783 10.0885 16.835 10C16.7783 9.91149 16.7139 9.81229 16.6406 9.70508C16.3133 9.22599 15.8281 8.58823 15.1992 7.9541C13.927 6.67129 12.1676 5.5 10 5.5ZM9.94824 8.53418C9.69904 8.53423 9.46422 8.59577 9.25781 8.7041L11.4326 9.94629C11.3929 9.15993 10.7444 8.53426 9.94824 8.53418Z" fill="black"/>
<path d="M11.2461 12.4883C10.8583 12.6928 10.4172 12.8105 9.94824 12.8105C8.45344 12.8104 7.23689 11.6338 7.16699 10.1562L11.2461 12.4883Z" fill="black"/>
</svg>
