<svg width="20" height="20" viewBox="0 0 20 20" fill="none" xmlns="http://www.w3.org/2000/svg">
<path fill-rule="evenodd" clip-rule="evenodd" d="M8.80469 2C12.5629 2 15.6101 5.04652 15.6104 8.80469L15.6016 9.15527C15.5224 10.7174 14.9157 12.1399 13.957 13.25L17.8535 17.1465L17.1465 17.8535L13.25 13.957C12.0574 14.9869 10.504 15.6104 8.80469 15.6104L8.45508 15.6016C4.85938 15.4194 2 12.4457 2 8.80469C2.00026 5.04668 5.04668 2.00026 8.80469 2ZM8.80469 3C5.59896 3.00026 3.00026 5.59896 3 8.80469C3 12.0106 5.5988 14.6101 8.80469 14.6104C12.0108 14.6104 14.6104 12.0108 14.6104 8.80469C14.6101 5.5988 12.0106 3 8.80469 3Z" fill="black"/>
</svg>
