<svg width="20" height="20" viewBox="0 0 20 20" fill="none" xmlns="http://www.w3.org/2000/svg">
<path fill-rule="evenodd" clip-rule="evenodd" d="M15.2041 5.01074C16.2128 5.113 17 5.96435 17 7V16C17 17.0357 16.2128 17.887 15.2041 17.9893L15 18H8C6.96435 18 6.113 17.2128 6.01074 16.2041L6 16V7C6 5.89543 6.89543 5 8 5H15L15.2041 5.01074ZM8 6C7.44772 6 7 6.44772 7 7V16C7 16.5523 7.44772 17 8 17H15C15.5523 17 16 16.5523 16 16V7C16 6.44772 15.5523 6 15 6H8Z" fill="black"/>
<path d="M14 3H6C4.89543 3 4 3.89543 4 5V15H3V5C3 3.34315 4.34315 2 6 2H14V3Z" fill="black"/>
</svg>
