<svg width="20" height="20" viewBox="0 0 20 20" fill="none" xmlns="http://www.w3.org/2000/svg">
<path fill-rule="evenodd" clip-rule="evenodd" d="M11.9521 4.93848C12.2501 5.05889 12.5293 5.19146 12.79 5.33594C13.0509 5.48055 13.3185 5.66199 13.5918 5.87891L15.7529 5.15527L17.2441 7.68652L15.5293 9.13281C15.5789 9.42191 15.6045 9.72296 15.6045 10.0361C15.6045 10.3495 15.579 10.6512 15.5293 10.9404L17.2441 12.3857L15.7529 14.8447L13.5918 14.1934C13.3185 14.3862 13.0509 14.5491 12.79 14.6816C12.5293 14.8141 12.2501 14.9411 11.9521 15.0615L11.5049 17.2305H8.52246L8.0752 15.0615C7.77721 14.9411 7.49806 14.8141 7.2373 14.6816C6.97641 14.5491 6.70886 14.3862 6.43555 14.1934L4.27441 14.8447L2.7832 12.3857L4.49805 10.9404C4.44835 10.603 4.42285 10.2892 4.42285 10C4.42285 9.71078 4.44835 9.39699 4.49805 9.05957L2.7832 7.61426L4.27441 5.15527L6.43555 5.80664C6.70886 5.61383 6.97641 5.45092 7.2373 5.31836C7.49806 5.18588 7.77721 5.05892 8.0752 4.93848L8.52246 2.76953H11.5049L11.9521 4.93848ZM10.0059 8.0332C8.918 8.0332 8.03613 8.91507 8.03613 10.0029C8.03615 11.0908 8.91801 11.9727 10.0059 11.9727C11.0936 11.9725 11.9756 11.0907 11.9756 10.0029C11.9756 8.91518 11.0936 8.03338 10.0059 8.0332Z" stroke="black"/>
</svg>
