<svg width="20" height="20" viewBox="0 0 20 20" fill="none" xmlns="http://www.w3.org/2000/svg">
<path fill-rule="evenodd" clip-rule="evenodd" d="M9.94824 7.23438C11.4881 7.23438 12.7363 8.48264 12.7363 10.0225C12.7363 11.5623 11.4881 12.8105 9.94824 12.8105C8.40842 12.8105 7.16016 11.5623 7.16016 10.0225C7.16019 8.48266 8.40844 7.23441 9.94824 7.23438ZM9.94824 8.23438C8.96073 8.23441 8.16019 9.03495 8.16016 10.0225C8.16016 11.01 8.9607 11.8105 9.94824 11.8105C10.9358 11.8105 11.7363 11.01 11.7363 10.0225C11.7363 9.03492 10.9358 8.23438 9.94824 8.23438Z" fill="black"/>
<path fill-rule="evenodd" clip-rule="evenodd" d="M10 4.5C15.0909 4.5 18 10 18 10L17.8652 10.2363C17.2389 11.2889 14.4547 15.5 10 15.5C5.54534 15.5 2.7611 11.2889 2.13477 10.2363L2 10C2 10 4.90909 4.5 10 4.5ZM10 5.5C7.83242 5.5 6.07299 6.67129 4.80078 7.9541C4.1719 8.58823 3.68668 9.22599 3.35938 9.70508C3.28601 9.81247 3.22079 9.91137 3.16406 10C3.22079 10.0886 3.28601 10.1875 3.35938 10.2949C3.68668 10.774 4.1719 11.4118 4.80078 12.0459C6.07299 13.3287 7.83242 14.5 10 14.5C12.1676 14.5 13.927 13.3287 15.1992 12.0459C15.8281 11.4118 16.3133 10.774 16.6406 10.2949C16.7139 10.1877 16.7783 10.0885 16.835 10C16.7783 9.91149 16.7139 9.81229 16.6406 9.70508C16.3133 9.22599 15.8281 8.58823 15.1992 7.9541C13.927 6.67129 12.1676 5.5 10 5.5Z" fill="black"/>
</svg>
