<svg width="20" height="20" viewBox="0 0 20 20" fill="none" xmlns="http://www.w3.org/2000/svg">
<path fill-rule="evenodd" clip-rule="evenodd" d="M13.2041 9.01038C14.2127 9.11263 14.9998 9.96415 15 10.9996V15.9996C15 17.0353 14.2128 17.8866 13.2041 17.9889L13 17.9996H5C3.96435 17.9996 3.113 17.2124 3.01074 16.2037L3 15.9996V10.9996C3.0002 9.89523 3.89555 8.99963 5 8.99963H13L13.2041 9.01038ZM5 9.99963C4.44784 9.99963 4.0002 10.4475 4 10.9996V15.9996C4 16.5519 4.44772 16.9996 5 16.9996H13C13.5523 16.9996 14 16.5519 14 15.9996V10.9996C13.9998 10.4475 13.5522 9.99963 13 9.99963H5Z" fill="black"/>
<path d="M15 2.09729C16.9329 2.09729 18.4998 3.66447 18.5 5.59729V8.99768H17.5V5.59729C17.4998 4.21676 16.3806 3.09729 15 3.09729C13.6194 3.09729 12.5002 4.21676 12.5 5.59729V8.99768H11.5V5.59729C11.5002 3.66447 13.0671 2.09729 15 2.09729Z" fill="black"/>
</svg>
