<svg width="24" height="24" viewBox="0 0 24 24" fill="none" xmlns="http://www.w3.org/2000/svg">
<path d="M4.25781 7.69336C5.87999 5.2192 8.67591 3.58315 11.8555 3.58301C16.8725 3.58301 20.9395 7.65412 20.9395 12.6748C20.9393 17.6953 16.8723 21.7666 11.8555 21.7666C7.73988 21.7664 4.26486 19.0262 3.14844 15.2715L3.62793 15.1289L4.10742 14.9873C5.10152 18.3298 8.1952 20.7664 11.8555 20.7666C16.3191 20.7666 19.9393 17.144 19.9395 12.6748C19.9395 8.20549 16.3193 4.58301 11.8555 4.58301C8.86987 4.58316 6.26148 6.2036 4.86133 8.61621H10.8584V9.61621H3.25781V2.01562H4.25781V7.69336ZM4.25781 8.61621H4.3877L4.31055 8.57422L4.25781 8.54492V8.61621Z" fill="black"/>
</svg>
