<svg width="24" height="24" viewBox="0 0 24 24" fill="none" xmlns="http://www.w3.org/2000/svg">
<path d="M11.5 13H6.99609V12H11.5V13Z" fill="black"/>
<path d="M13.9814 9H6.99609V8H13.9814V9Z" fill="black"/>
<path fill-rule="evenodd" clip-rule="evenodd" d="M10.5 2C15.1944 2 19 5.80558 19 10.5C19 12.299 18.439 13.9661 17.4854 15.3398L21.1504 19.0059C21.7361 19.5917 21.7361 20.5412 21.1504 21.127C20.5646 21.7125 19.615 21.7126 19.0293 21.127L15.3672 17.4648C13.9881 18.4304 12.3113 19 10.5 19C5.80558 19 2 15.1944 2 10.5C2 5.80558 5.80558 2 10.5 2ZM16.1709 16.8535L19.7363 20.4199C19.9315 20.615 20.2481 20.615 20.4434 20.4199C20.6386 20.2247 20.6385 19.9082 20.4434 19.7129L16.8779 16.1465L16.1709 16.8535ZM10.5 3C6.35786 3 3 6.35786 3 10.5C3 14.6421 6.35786 18 10.5 18C14.6421 18 18 14.6421 18 10.5C18 6.35786 14.6421 3 10.5 3Z" fill="black"/>
</svg>
