<svg width="24" height="24" viewBox="0 0 24 24" fill="none" xmlns="http://www.w3.org/2000/svg">
<path fill-rule="evenodd" clip-rule="evenodd" d="M15.5996 10.9997C16.925 10.9997 17.9998 12.0748 18 13.4001V19.5993C18 20.9248 16.9251 21.9997 15.5996 21.9997H6.40039L6.1543 21.987C4.94426 21.864 4 20.8418 4 19.5993V13.4001C4.00016 12.1577 4.94435 11.1355 6.1543 11.0124L6.40039 10.9997H12.5V6.49973C12.5001 4.01457 14.5148 1.99973 17 1.99973C19.4852 1.99973 21.4999 4.01457 21.5 6.49973V10.9997H20.5V6.49973C20.4999 4.56685 18.9329 2.99973 17 2.99973C15.0671 2.99973 13.5001 4.56685 13.5 6.49973V10.9997H15.5996ZM6.40039 11.9997C5.6273 11.9997 5.00017 12.6271 5 13.4001V19.5993C5 20.3725 5.62719 20.9997 6.40039 20.9997H15.5996C16.3728 20.9997 17 20.3725 17 19.5993V13.4001C16.9998 12.6271 16.3727 11.9997 15.5996 11.9997H6.40039Z" fill="black"/>
</svg>
